<svg xmlns="http://www.w3.org/2000/svg"
     viewBox="0 0 1254 1254"
     width="1254" height="1254"
     role="img" aria-label="S lightning logo">
  <path d="M 900 239 L 855 262 L 853 264 L 822 279 L 820 281 L 757 312 L 755 314 L 751 315 L 749 317 L 737 323 L 735 323 L 733 325 L 497 443 L 480 454 L 465 466 L 450 481 L 439 495 L 429 512 L 421 533 L 420 541 L 419 542 L 419 548 L 418 549 L 418 568 L 419 569 L 419 574 L 422 586 L 432 606 L 445 621 L 457 630 L 469 636 L 478 639 L 486 640 L 487 641 L 495 641 L 496 642 L 554 642 L 555 641 L 578 641 L 579 642 L 615 642 L 616 641 L 623 641 L 624 642 L 628 641 L 632 642 L 633 641 L 651 642 L 652 641 L 662 641 L 663 642 L 682 642 L 683 641 L 704 641 L 711 643 L 559 789 L 432 914 L 353 988 L 548 889 L 550 887 L 615 854 L 617 852 L 632 845 L 634 843 L 670 825 L 672 823 L 689 815 L 691 813 L 704 807 L 719 798 L 775 769 L 792 758 L 806 747 L 820 733 L 831 719 L 841 701 L 848 680 L 849 666 L 850 665 L 848 643 L 843 628 L 839 620 L 832 610 L 818 597 L 804 589 L 783 583 L 551 583 L 550 581 L 681 456 L 711 429 Z" fill="#000000"/>
</svg>
